<svg width="80" height="80" viewBox="0 0 80 80" fill="none" xmlns="http://www.w3.org/2000/svg">
<g clip-path="url(#clip0_1789_625)">
<path d="M40 0C34.171 0 28.7074 1.55947 24 4.28404C20.986 6.02443 18.2868 8.24243 16 10.8367C11.0213 16.4776 8 23.8878 8 32V56L16 64V32C16 24.8937 19.09 18.5075 24 14.1113C26.3085 12.0489 29.0186 10.4206 32 9.37133C34.5002 8.48123 37.1959 8.00001 40 8.00001C53.2538 8.00001 64 18.7463 64 32C64 45.2538 53.2538 56 40 56V64C57.6753 64 72 49.6717 72 32C72 14.3284 57.6753 0 40 0Z" fill="#E6DAFE"/>
<path d="M47.7891 32C47.7891 36.4179 44.207 40 39.7891 40V48C48.6249 48 55.7891 40.8358 55.7891 32C55.7891 23.1642 48.6249 16 39.7891 16C36.8764 16 34.1409 16.7779 31.7891 18.142C27.0057 20.9064 23.7891 26.0769 23.7891 32V72L30.9822 79.1932L31.7891 80V32C31.7891 27.5821 35.3712 24 39.7891 24C44.207 24 47.7891 27.5821 47.7891 32V32Z" fill="#E6DAFE"/>
</g>
<defs>
<clipPath id="clip0_1789_625">
<rect width="80" height="80" fill="white"/>
</clipPath>
</defs>
</svg>
